<svg xmlns="http://www.w3.org/2000/svg" viewBox="0 0 514.42 112.04"><defs><style>.cls-1{fill:#84c774;}.cls-2{fill:#75c044;}.cls-3{fill:#41b649;}.cls-4{fill:none;stroke:#231f20;stroke-miterlimit:10;stroke-width:0.88px;}.cls-5{font-size:96.9px;fill:#66c083;font-family:RobotoSlab-Regular, Roboto Slab;}</style></defs><title>Clean_Pea_logo</title><g id="Layer_2" data-name="Layer 2"><path class="cls-1" d="M118.45,216.5l-.15-.05c.29-1.16.61-2.35,1-3.57a.6.6,0,0,1,1.18,0c.43,1.68.93,3.46,1.5,5.32a1,1,0,0,0-.82-.27c-.92.17-1.48,1.83-1.26,3.73S121,225,122,224.85c.72-.12,1.22-1.19,1.29-2.56.92,2.75,2,5.64,3.22,8.62-1.25-1.21-2.63-1.65-3.73-1-1.87,1.09-2.22,4.91-.76,8.54s4.16,5.68,6,4.59c1.29-.75,1.85-2.76,1.62-5.12,1.43,2.93,3,5.9,4.81,8.87-1.8-1.45-3.77-1.77-5.09-.59-1.9,1.71-1.69,5.9.46,9.36s5.44,4.91,7.34,3.2c1.38-1.23,1.65-3.77.88-6.38a100.18,100.18,0,0,0,6.52,8.53c-2.47-1.35-5-1.13-5.94.68-1.12,2.11.25,5.58,3.07,7.75s6,2.22,7.14.11a4.67,4.67,0,0,0-.1-4,91.1,91.1,0,0,0,7.41,6.86c-2.05-.85-4-.55-4.41.75s.92,3.4,3.13,4.48,4.38.85,4.86-.54a2.65,2.65,0,0,0-.5-2.25,84.41,84.41,0,0,0,9.85,6.42c.59.33.41,1.41-.25,1.43a58.27,58.27,0,0,1-12.74-.92C129,266.9,112.94,238.52,118.45,216.5Z" transform="translate(-52.58 -199.76)"/><path class="cls-2" d="M159.7,277c-.48,1.39-2.65,1.64-4.86.54s-3.6-3.09-3.13-4.48,2.36-1.6,4.41-.75c1,.87,2.07,1.68,3.08,2.44h0A2.65,2.65,0,0,1,159.7,277Z" transform="translate(-52.58 -199.76)"/><path class="cls-2" d="M156.56,272.53a6.72,6.72,0,0,1,2.64,2.24c-1-.76-2-1.57-3.08-2.44Z" transform="translate(-52.58 -199.76)"/><path class="cls-2" d="M148.71,265.47a4.67,4.67,0,0,1,.1,4c-1.12,2.11-4.31,2.06-7.14-.11s-4.19-5.64-3.07-7.75c1-1.81,3.47-2,5.94-.68h0Q146.64,263.33,148.71,265.47Z" transform="translate(-52.58 -199.76)"/><path class="cls-3" d="M156.06,281.7c-20.59-3.8-35.63-18.67-39.17-38.65-.79-4.45-1.81-13.7,1.41-26.6l.15.05C112.94,238.52,129,266.9,156.06,281.7Z" transform="translate(-52.58 -199.76)"/><path class="cls-2" d="M145.74,261.68a9.38,9.38,0,0,1,3,3.79q-2.07-2.13-4.16-4.58A8.46,8.46,0,0,1,145.74,261.68Z" transform="translate(-52.58 -199.76)"/><path class="cls-2" d="M138,252.36c.77,2.61.5,5.15-.88,6.38-1.9,1.71-5.18.28-7.34-3.2s-2.36-7.65-.46-9.36c1.32-1.18,3.29-.86,5.09.59.4.68.82,1.35,1.24,2C136.44,250,137.23,251.21,138,252.36Z" transform="translate(-52.58 -199.76)"/><path class="cls-2" d="M136.68,249.37a12,12,0,0,1,1.34,3c-.79-1.15-1.58-2.34-2.35-3.57-.42-.67-.84-1.34-1.24-2A10.4,10.4,0,0,1,136.68,249.37Z" transform="translate(-52.58 -199.76)"/><path class="cls-2" d="M129.62,237.9c.23,2.36-.33,4.37-1.62,5.12-1.87,1.09-4.58-1-6-4.59s-1.11-7.45.76-8.54c1.1-.63,2.48-.19,3.73,1,1,2.28,2,4.62,3.15,7Z" transform="translate(-52.58 -199.76)"/><path class="cls-2" d="M128.77,234.49a12.23,12.23,0,0,1,.84,3.41c-1.15-2.37-2.2-4.71-3.15-7A10,10,0,0,1,128.77,234.49Z" transform="translate(-52.58 -199.76)"/><path class="cls-2" d="M123.24,222.29c-.07,1.37-.57,2.44-1.29,2.56-.92.16-1.85-1.25-2.08-3.16s.34-3.56,1.26-3.73a1,1,0,0,1,.82.27C122.34,219.54,122.77,220.9,123.24,222.29Z" transform="translate(-52.58 -199.76)"/><path class="cls-2" d="M123.2,221.12a6.67,6.67,0,0,1,0,1.17c-.47-1.39-.9-2.75-1.29-4.06A4.59,4.59,0,0,1,123.2,221.12Z" transform="translate(-52.58 -199.76)"/><path class="cls-4" d="M148.71,265.47a91.1,91.1,0,0,0,7.41,6.86" transform="translate(-52.58 -199.76)"/><path class="cls-4" d="M138,252.36a100.18,100.18,0,0,0,6.52,8.53" transform="translate(-52.58 -199.76)"/><path class="cls-4" d="M129.62,237.9c1.43,2.93,3,5.9,4.81,8.87" transform="translate(-52.58 -199.76)"/><path class="cls-4" d="M123.24,222.29c.92,2.75,2,5.64,3.22,8.62" transform="translate(-52.58 -199.76)"/><path class="cls-4" d="M159.2,274.77a84.41,84.41,0,0,0,9.85,6.42c.59.33.41,1.41-.25,1.43a58.27,58.27,0,0,1-12.74-.92c-20.59-3.8-35.63-18.67-39.17-38.65-.79-4.45-1.81-13.7,1.41-26.6.29-1.16.61-2.35,1-3.57a.6.6,0,0,1,1.18,0c.43,1.68.93,3.46,1.5,5.32" transform="translate(-52.58 -199.76)"/><path class="cls-4" d="M129.62,237.9c.23,2.36-.33,4.37-1.62,5.12-1.87,1.09-4.58-1-6-4.59s-1.11-7.45.76-8.54c1.1-.63,2.48-.19,3.73,1a10,10,0,0,1,2.31,3.58,12.23,12.23,0,0,1,.84,3.41Z" transform="translate(-52.58 -199.76)"/><path class="cls-4" d="M138,252.36c.77,2.61.5,5.15-.88,6.38-1.9,1.71-5.18.28-7.34-3.2s-2.36-7.65-.46-9.36c1.32-1.18,3.29-.86,5.09.59a10.4,10.4,0,0,1,2.25,2.6A12,12,0,0,1,138,252.36Z" transform="translate(-52.58 -199.76)"/><path class="cls-4" d="M148.71,265.47a4.67,4.67,0,0,1,.1,4c-1.12,2.11-4.31,2.06-7.14-.11s-4.19-5.64-3.07-7.75c1-1.81,3.47-2,5.94-.68h0a8.46,8.46,0,0,1,1.19.79A9.38,9.38,0,0,1,148.71,265.47Z" transform="translate(-52.58 -199.76)"/><path class="cls-4" d="M159.2,274.77a2.65,2.65,0,0,1,.5,2.25c-.48,1.39-2.65,1.64-4.86.54s-3.6-3.09-3.13-4.48,2.36-1.6,4.41-.75l.44.2a6.72,6.72,0,0,1,2.64,2.24Z" transform="translate(-52.58 -199.76)"/><path class="cls-4" d="M123.24,222.29c-.07,1.37-.57,2.44-1.29,2.56-.92.16-1.85-1.25-2.08-3.16s.34-3.56,1.26-3.73a1,1,0,0,1,.82.27,4.59,4.59,0,0,1,1.25,2.89A6.67,6.67,0,0,1,123.24,222.29Z" transform="translate(-52.58 -199.76)"/><path class="cls-4" d="M119.62,212.75a34.66,34.66,0,0,0-1.17,3.75c-5.51,22,10.54,50.4,37.61,65.2" transform="translate(-52.58 -199.76)"/><text class="cls-5" transform="translate(0 82.89) scale(0.91 1)"><tspan xml:space="preserve">C   EAN PEA</tspan></text><text x="-52.58" y="-199.76"></text></g></svg>